#N canvas 132 213 1089 651 10;
#X obj -162 -7 bng 15 250 50 0 empty empty empty 17 7 0 10 -262144
-1 -1;
#X obj -163 14 openpanel;
#X obj -163 56 soundfiler;
#N canvas 0 22 450 278 (subpatch) 0;
#X array randm_samplr 124609 float 2;
#X coords 0 1 124609 -1 200 140 1;
#X restore 626 444 graph;
#X obj -163 87 / 16;
#N canvas 62 401 1094 445 get_array_labels 0;
#X obj 784 85 inlet;
#X obj 151 340 outlet;
#X obj 118 195 f;
#X obj 70 195 f;
#X obj 94 195 * 1;
#X obj 214 195 f;
#X obj 238 195 * 4;
#X obj 166 195 f;
#X obj 310 195 f;
#X obj 262 195 f;
#X obj 406 195 f;
#X obj 358 195 f;
#X obj 142 195 * 2;
#X obj 190 195 * 3;
#X obj 286 195 * 5;
#X obj 334 195 * 6;
#X obj 382 195 * 7;
#X obj 430 195 * 8;
#X obj 502 195 f;
#X obj 454 195 f;
#X obj 608 195 f;
#X obj 556 195 f;
#X obj 715 195 f;
#X obj 661 195 f;
#X obj 769 195 f;
#X obj 478 195 * 9;
#X obj 526 195 * 10;
#X obj 580 195 * 11;
#X obj 632 195 * 12;
#X obj 685 195 * 13;
#X obj 739 195 * 14;
#X obj 793 195 * 15;
#X obj 481 278 pack f f f f f f f f f f f f f f f f;
#X obj 826 195 f;
#X obj 850 195 * 16;
#X connect 0 0 3 0;
#X connect 0 0 2 0;
#X connect 0 0 7 0;
#X connect 0 0 5 0;
#X connect 0 0 9 0;
#X connect 0 0 8 0;
#X connect 0 0 11 0;
#X connect 0 0 10 0;
#X connect 0 0 19 0;
#X connect 0 0 18 0;
#X connect 0 0 21 0;
#X connect 0 0 20 0;
#X connect 0 0 23 0;
#X connect 0 0 22 0;
#X connect 0 0 24 0;
#X connect 0 0 33 0;
#X connect 2 0 12 0;
#X connect 3 0 4 0;
#X connect 4 0 32 0;
#X connect 5 0 6 0;
#X connect 6 0 32 3;
#X connect 7 0 13 0;
#X connect 8 0 15 0;
#X connect 9 0 14 0;
#X connect 10 0 17 0;
#X connect 11 0 16 0;
#X connect 12 0 32 1;
#X connect 13 0 32 2;
#X connect 14 0 32 4;
#X connect 15 0 32 5;
#X connect 16 0 32 6;
#X connect 17 0 32 7;
#X connect 18 0 26 0;
#X connect 19 0 25 0;
#X connect 20 0 28 0;
#X connect 21 0 27 0;
#X connect 22 0 30 0;
#X connect 23 0 29 0;
#X connect 24 0 31 0;
#X connect 25 0 32 8;
#X connect 26 0 32 9;
#X connect 27 0 32 10;
#X connect 28 0 32 11;
#X connect 29 0 32 12;
#X connect 30 0 32 13;
#X connect 31 0 32 14;
#X connect 32 0 1 0;
#X connect 33 0 34 0;
#X connect 34 0 32 15;
#X restore -163 128 pd get_array_labels;
#X floatatom -163 108 5 0 0 0 - - -;
#X obj -225 87 delay 100;
#X obj -200 67 bng 15 250 50 0 empty empty empty 17 7 0 10 -262144
-1 -1;
#X floatatom 602 3 5 0 0 0 - - -;
#X obj 90 553 dac~;
#N canvas 891 324 450 300 position 0;
#X obj 38 54 inlet;
#X obj 91 55 inlet;
#X obj 146 57 inlet;
#X obj 123 205 outlet;
#X obj 117 125 pack f f;
#X obj 76 204 outlet;
#X connect 0 0 5 0;
#X connect 1 0 4 0;
#X connect 2 0 4 1;
#X connect 4 0 3 0;
#X restore 90 489 pd position;
#X obj 90 509 line~;
#N canvas 698 328 846 497 time_positions 0;
#X obj 105 272 unpack f f f f f f f f f f f f f f f f;
#X obj -55 333 prepend set;
#X msg -54 358 7788.06;
#X obj -26 333 prepend set;
#X msg -25 358 15576.1;
#X obj 4 334 prepend set;
#X msg 5 359 23364.2;
#X obj 35 334 prepend set;
#X msg 36 359 31152.2;
#X obj 68 335 prepend set;
#X msg 69 360 38940.3;
#X obj 102 335 prepend set;
#X msg 103 360 46728.4;
#X obj 136 335 prepend set;
#X msg 137 360 54516.4;
#X obj 171 336 prepend set;
#X msg 172 361 62304.5;
#X obj 207 336 prepend set;
#X msg 208 361 70092.6;
#X obj 241 336 prepend set;
#X msg 242 361 77880.6;
#X obj 274 335 prepend set;
#X msg 274 362 85668.7;
#X obj 306 336 prepend set;
#X msg 307 361 93456.8;
#X obj 340 337 prepend set;
#X msg 341 362 101245;
#X obj 373 337 prepend set;
#X msg 374 362 109033;
#X obj 407 337 prepend set;
#X msg 408 362 116821;
#X obj 439 337 prepend set;
#X msg 440 362 124609;
#X msg -88 359 0;
#X obj -193 135 inlet;
#X obj -52 211 inlet;
#X obj -17 211 inlet;
#X obj 18 211 inlet;
#X obj 53 211 inlet;
#X obj 88 211 inlet;
#X obj 123 211 inlet;
#X obj 158 211 inlet;
#X obj 193 211 inlet;
#X obj 228 211 inlet;
#X obj 263 211 inlet;
#X obj 298 211 inlet;
#X obj 333 211 inlet;
#X obj 368 211 inlet;
#X obj 403 211 inlet;
#X obj 438 211 inlet;
#X obj 473 211 inlet;
#X obj 507 211 inlet;
#X obj -100 422 outlet;
#X obj -59 422 outlet;
#X obj -19 422 outlet;
#X obj 22 422 outlet;
#X obj 62 422 outlet;
#X obj 103 422 outlet;
#X obj 144 422 outlet;
#X obj 185 422 outlet;
#X obj 225 422 outlet;
#X obj 266 422 outlet;
#X obj 306 422 outlet;
#X obj 347 422 outlet;
#X obj 387 422 outlet;
#X obj 428 422 outlet;
#X obj 469 422 outlet;
#X obj 510 422 outlet;
#X obj 551 422 outlet;
#X connect 0 0 1 0;
#X connect 0 1 3 0;
#X connect 0 2 5 0;
#X connect 0 3 7 0;
#X connect 0 4 9 0;
#X connect 0 5 11 0;
#X connect 0 6 13 0;
#X connect 0 7 15 0;
#X connect 0 8 17 0;
#X connect 0 9 19 0;
#X connect 0 10 21 0;
#X connect 0 11 23 0;
#X connect 0 12 25 0;
#X connect 0 13 27 0;
#X connect 0 14 29 0;
#X connect 0 15 31 0;
#X connect 1 0 2 0;
#X connect 2 0 53 0;
#X connect 3 0 4 0;
#X connect 4 0 54 0;
#X connect 5 0 6 0;
#X connect 6 0 55 0;
#X connect 7 0 8 0;
#X connect 8 0 56 0;
#X connect 9 0 10 0;
#X connect 10 0 57 0;
#X connect 11 0 12 0;
#X connect 12 0 58 0;
#X connect 13 0 14 0;
#X connect 14 0 59 0;
#X connect 15 0 16 0;
#X connect 16 0 60 0;
#X connect 17 0 18 0;
#X connect 18 0 61 0;
#X connect 19 0 20 0;
#X connect 20 0 62 0;
#X connect 21 0 22 0;
#X connect 22 0 63 0;
#X connect 23 0 24 0;
#X connect 24 0 64 0;
#X connect 25 0 26 0;
#X connect 26 0 65 0;
#X connect 27 0 28 0;
#X connect 28 0 66 0;
#X connect 29 0 30 0;
#X connect 30 0 67 0;
#X connect 31 0 32 0;
#X connect 32 0 68 0;
#X connect 33 0 52 0;
#X connect 34 0 0 0;
#X connect 35 0 33 0;
#X connect 36 0 2 0;
#X connect 37 0 4 0;
#X connect 38 0 6 0;
#X connect 39 0 8 0;
#X connect 40 0 10 0;
#X connect 41 0 12 0;
#X connect 42 0 14 0;
#X connect 43 0 16 0;
#X connect 44 0 18 0;
#X connect 45 0 20 0;
#X connect 46 0 22 0;
#X connect 47 0 24 0;
#X connect 48 0 26 0;
#X connect 49 0 28 0;
#X connect 50 0 30 0;
#X connect 51 0 32 0;
#X coords 0 -1 1 1 400 30 2 100 100;
#X restore -225 440 pd time_positions;
#N canvas 295 282 1094 445 get_array_labels 0;
#X obj 784 85 inlet;
#X obj 151 340 outlet;
#X obj 118 195 f;
#X obj 70 195 f;
#X obj 94 195 * 1;
#X obj 214 195 f;
#X obj 238 195 * 4;
#X obj 166 195 f;
#X obj 310 195 f;
#X obj 262 195 f;
#X obj 406 195 f;
#X obj 358 195 f;
#X obj 142 195 * 2;
#X obj 190 195 * 3;
#X obj 286 195 * 5;
#X obj 334 195 * 6;
#X obj 382 195 * 7;
#X obj 430 195 * 8;
#X obj 502 195 f;
#X obj 454 195 f;
#X obj 608 195 f;
#X obj 556 195 f;
#X obj 715 195 f;
#X obj 661 195 f;
#X obj 769 195 f;
#X obj 478 195 * 9;
#X obj 526 195 * 10;
#X obj 580 195 * 11;
#X obj 632 195 * 12;
#X obj 685 195 * 13;
#X obj 739 195 * 14;
#X obj 793 195 * 15;
#X obj 481 278 pack f f f f f f f f f f f f f f f f;
#X obj 826 195 f;
#X obj 850 195 * 16;
#X connect 0 0 3 0;
#X connect 0 0 2 0;
#X connect 0 0 7 0;
#X connect 0 0 5 0;
#X connect 0 0 9 0;
#X connect 0 0 8 0;
#X connect 0 0 11 0;
#X connect 0 0 10 0;
#X connect 0 0 19 0;
#X connect 0 0 18 0;
#X connect 0 0 21 0;
#X connect 0 0 20 0;
#X connect 0 0 23 0;
#X connect 0 0 22 0;
#X connect 0 0 24 0;
#X connect 0 0 33 0;
#X connect 2 0 12 0;
#X connect 3 0 4 0;
#X connect 4 0 32 0;
#X connect 5 0 6 0;
#X connect 6 0 32 3;
#X connect 7 0 13 0;
#X connect 8 0 15 0;
#X connect 9 0 14 0;
#X connect 10 0 17 0;
#X connect 11 0 16 0;
#X connect 12 0 32 1;
#X connect 13 0 32 2;
#X connect 14 0 32 4;
#X connect 15 0 32 5;
#X connect 16 0 32 6;
#X connect 17 0 32 7;
#X connect 18 0 26 0;
#X connect 19 0 25 0;
#X connect 20 0 28 0;
#X connect 21 0 27 0;
#X connect 22 0 30 0;
#X connect 23 0 29 0;
#X connect 24 0 31 0;
#X connect 25 0 32 8;
#X connect 26 0 32 9;
#X connect 27 0 32 10;
#X connect 28 0 32 11;
#X connect 29 0 32 12;
#X connect 30 0 32 13;
#X connect 31 0 32 14;
#X connect 32 0 1 0;
#X connect 33 0 34 0;
#X connect 34 0 32 15;
#X restore 601 44 pd get_array_labels;
#N canvas 30 327 1182 478 time_positions 0;
#X obj 76 305 unpack f f f f f f f f f f f f f f f f;
#X obj -55 333 prepend set;
#X msg -54 358 160.428;
#X obj -26 333 prepend set;
#X msg -25 358 320.856;
#X obj 4 334 prepend set;
#X msg 5 359 481.283;
#X obj 35 334 prepend set;
#X msg 36 359 641.711;
#X obj 68 335 prepend set;
#X msg 69 360 802.139;
#X obj 102 335 prepend set;
#X msg 103 360 962.567;
#X obj 136 335 prepend set;
#X msg 137 360 1122.99;
#X obj 171 336 prepend set;
#X msg 172 361 1283.42;
#X obj 207 336 prepend set;
#X msg 208 361 1443.85;
#X obj 241 336 prepend set;
#X msg 242 361 1604.28;
#X obj 274 335 prepend set;
#X msg 274 362 1764.71;
#X obj 306 336 prepend set;
#X msg 307 361 1925.13;
#X obj 340 337 prepend set;
#X msg 341 362 2085.56;
#X obj 373 337 prepend set;
#X msg 374 362 2245.99;
#X obj 407 337 prepend set;
#X msg 408 362 2406.42;
#X obj 439 337 prepend set;
#X msg 440 362 2566.84;
#X obj -193 135 inlet;
#X obj 924 305 inlet;
#X obj 889 305 inlet;
#X obj 854 305 inlet;
#X obj 819 305 inlet;
#X obj 784 305 inlet;
#X obj 750 304 inlet;
#X obj 715 304 inlet;
#X obj 680 304 inlet;
#X obj 645 304 inlet;
#X obj 610 304 inlet;
#X obj 575 304 inlet;
#X obj 541 304 inlet;
#X obj 506 304 inlet;
#X obj 472 304 inlet;
#X obj 438 304 inlet;
#X obj 403 304 inlet;
#X obj 185 426 outlet;
#X obj 225 426 outlet;
#X obj 266 426 outlet;
#X obj 306 426 outlet;
#X obj 346 426 outlet;
#X obj 386 426 outlet;
#X obj 427 426 outlet;
#X obj 467 426 outlet;
#X obj 508 426 outlet;
#X obj 548 426 outlet;
#X obj 589 426 outlet;
#X obj 629 426 outlet;
#X obj 669 426 outlet;
#X obj 709 426 outlet;
#X obj 750 426 outlet;
#X obj 790 426 outlet;
#X connect 0 0 1 0;
#X connect 0 1 3 0;
#X connect 0 2 5 0;
#X connect 0 3 7 0;
#X connect 0 4 9 0;
#X connect 0 5 11 0;
#X connect 0 6 13 0;
#X connect 0 7 15 0;
#X connect 0 8 17 0;
#X connect 0 9 19 0;
#X connect 0 10 21 0;
#X connect 0 11 23 0;
#X connect 0 12 25 0;
#X connect 0 13 27 0;
#X connect 0 14 29 0;
#X connect 0 15 31 0;
#X connect 1 0 2 0;
#X connect 2 0 65 0;
#X connect 3 0 4 0;
#X connect 4 0 64 0;
#X connect 5 0 6 0;
#X connect 6 0 63 0;
#X connect 7 0 8 0;
#X connect 8 0 62 0;
#X connect 9 0 10 0;
#X connect 10 0 61 0;
#X connect 11 0 12 0;
#X connect 12 0 60 0;
#X connect 13 0 14 0;
#X connect 14 0 59 0;
#X connect 15 0 16 0;
#X connect 16 0 58 0;
#X connect 17 0 18 0;
#X connect 18 0 57 0;
#X connect 19 0 20 0;
#X connect 20 0 56 0;
#X connect 21 0 22 0;
#X connect 22 0 55 0;
#X connect 23 0 24 0;
#X connect 24 0 54 0;
#X connect 25 0 26 0;
#X connect 26 0 53 0;
#X connect 27 0 28 0;
#X connect 28 0 52 0;
#X connect 29 0 30 0;
#X connect 30 0 51 0;
#X connect 31 0 32 0;
#X connect 32 0 50 0;
#X connect 33 0 0 0;
#X connect 34 0 2 0;
#X connect 35 0 4 0;
#X connect 36 0 6 0;
#X connect 37 0 8 0;
#X connect 38 0 10 0;
#X connect 39 0 12 0;
#X connect 40 0 14 0;
#X connect 41 0 16 0;
#X connect 42 0 18 0;
#X connect 43 0 20 0;
#X connect 44 0 22 0;
#X connect 45 0 24 0;
#X connect 46 0 26 0;
#X connect 47 0 28 0;
#X connect 48 0 30 0;
#X connect 49 0 32 0;
#X coords 0 -1 1 1 400 30 2 100 100;
#X restore 178 441 pd time_positions;
#X obj 602 21 / 16;
#X obj -202 371 bng 15 250 50 0 empty empty empty 17 7 0 10 -262144
-1 -1;
#X obj -110 371 bng 15 250 50 0 empty empty empty 17 7 0 10 -262144
-1 -1;
#X obj -18 371 bng 15 250 50 0 empty empty empty 17 7 0 10 -262144
-1 -1;
#X obj 74 371 bng 15 250 50 0 empty empty empty 17 7 0 10 -262144 -1
-1;
#X obj 641 134 random 4;
#X obj 641 151 select 0 1 2 3;
#X msg -163 35 read -resize \$1 randm_samplr;
#X obj 90 530 tabread~ randm_samplr;
#X obj -152 339 bng 15 250 50 0 empty empty empty 17 7 0 10 -262144
-1 -1;
#X obj -63 338 bng 15 250 50 0 empty empty empty 17 7 0 10 -262144
-1 -1;
#X obj 31 340 bng 15 250 50 0 empty empty empty 17 7 0 10 -262144 -1
-1;
#X obj 121 340 bng 15 250 50 0 empty empty empty 17 7 0 10 -262144
-1 -1;
#X obj 4 153 select 0 1 2 3 4 5 6 7;
#N canvas 509 123 697 522 metronome 0;
#X obj -77 249 metro;
#X obj -77 270 f;
#X obj -50 271 + 1;
#X obj 120 122 bng 15 250 50 0 empty empty empty 17 7 0 10 -262144
-1 -1;
#X msg 181 245 14;
#X obj 168 122 bng 15 250 50 0 empty empty empty 17 7 0 10 -262144
-1 -1;
#X msg -76 221 0;
#X obj -46 388 outlet;
#X text 111 103 START;
#X text 162 103 STOP;
#X msg -44 175 60000;
#X floatatom 119 157 5 0 0 0 - - -;
#X obj -4 176 *;
#X obj -31 196 /;
#X floatatom -33 221 5 0 0 0 - - -;
#X text 155 158 BPM;
#X msg 41 188 2;
#X obj 11 388 outlet;
#X obj 13 81 inlet;
#X connect 0 0 1 0;
#X connect 1 0 2 0;
#X connect 2 0 1 1;
#X connect 2 0 7 0;
#X connect 3 0 4 0;
#X connect 3 0 0 0;
#X connect 4 0 1 0;
#X connect 5 0 6 0;
#X connect 6 0 0 0;
#X connect 10 0 13 0;
#X connect 11 0 12 0;
#X connect 11 0 16 0;
#X connect 11 0 10 0;
#X connect 12 0 13 1;
#X connect 13 0 14 0;
#X connect 14 0 0 1;
#X connect 14 0 17 0;
#X connect 16 0 12 1;
#X connect 18 0 11 0;
#X coords 0 -1 1 1 100 100 2 100 100;
#X restore 209 -44 pd metronome;
#X msg -203 -34 187;
#X obj -92 57 / 44100;
#X floatatom -92 82 5 0 0 0 - - -;
#X text 497 -40 if sample is ~1.28 seconds do no math;
#X obj -40 57 expr if ($f1 > 1 && $f1 < 2 \, 8 \, 16);
#X floatatom -39 76 5 0 0 0 - - -;
#X obj 601 -18 *;
#X obj -200 42 bng 15 250 50 0 empty empty empty 17 7 0 10 -262144
-1 -1;
#X obj 132 99 == 8;
#X obj 99 133 spigot;
#X obj -22 134 hradio 15 1 0 8 empty empty empty 0 -8 0 10 -262144
-1 -1 3;
#X obj 220 100 == 16;
#X obj 187 135 spigot;
#X obj 187 153 select 0 1 2 3 4 5 6 7 8 9 10 11 12 13 14 15;
#X obj 228 137 hradio 15 1 0 16 empty empty empty 0 -8 0 10 -262144
-1 -1 13;
#X floatatom 209 83 5 0 0 0 - - -;
#X floatatom 132 116 5 0 0 0 - - -;
#X floatatom 220 118 5 0 0 0 - - -;
#X obj 209 60 mod \$1;
#X connect 0 0 1 0;
#X connect 1 0 23 0;
#X connect 2 0 4 0;
#X connect 2 0 32 0;
#X connect 4 0 6 0;
#X connect 4 0 8 0;
#X connect 5 0 13 0;
#X connect 6 0 5 0;
#X connect 7 0 5 0;
#X connect 7 0 38 0;
#X connect 8 0 7 0;
#X connect 9 0 16 0;
#X connect 11 0 12 0;
#X connect 11 1 12 0;
#X connect 12 0 24 0;
#X connect 13 0 11 0;
#X connect 13 2 11 0;
#X connect 13 4 11 0;
#X connect 13 6 11 0;
#X connect 13 8 11 0;
#X connect 13 10 11 0;
#X connect 13 12 11 0;
#X connect 13 14 11 0;
#X connect 13 16 11 1;
#X connect 14 0 15 0;
#X connect 15 0 11 2;
#X connect 15 2 11 2;
#X connect 15 4 11 2;
#X connect 15 6 11 2;
#X connect 15 8 11 2;
#X connect 15 10 11 2;
#X connect 15 12 11 2;
#X connect 15 14 11 2;
#X connect 16 0 14 0;
#X connect 17 0 13 1;
#X connect 17 0 15 1;
#X connect 17 0 13 17;
#X connect 18 0 13 5;
#X connect 18 0 15 5;
#X connect 18 0 13 17;
#X connect 19 0 13 9;
#X connect 19 0 15 9;
#X connect 19 0 13 17;
#X connect 20 0 13 13;
#X connect 20 0 15 13;
#X connect 20 0 13 17;
#X connect 21 0 22 0;
#X connect 23 0 2 0;
#X connect 24 0 10 0;
#X connect 24 0 10 1;
#X connect 25 0 13 3;
#X connect 25 0 15 3;
#X connect 25 0 13 17;
#X connect 26 0 13 7;
#X connect 26 0 15 7;
#X connect 26 0 13 17;
#X connect 27 0 13 11;
#X connect 27 0 15 11;
#X connect 27 0 13 17;
#X connect 28 0 13 15;
#X connect 28 0 15 15;
#X connect 28 0 13 17;
#X connect 30 0 49 0;
#X connect 30 1 37 0;
#X connect 31 0 30 0;
#X connect 32 0 33 0;
#X connect 33 0 35 0;
#X connect 35 0 36 0;
#X connect 36 0 37 1;
#X connect 36 0 39 0;
#X connect 36 0 42 0;
#X connect 36 0 49 1;
#X connect 37 0 9 0;
#X connect 38 0 31 0;
#X connect 38 0 9 0;
#X connect 39 0 47 0;
#X connect 40 0 29 0;
#X connect 40 0 41 0;
#X connect 42 0 48 0;
#X connect 43 0 44 0;
#X connect 43 0 45 0;
#X connect 46 0 40 0;
#X connect 46 0 43 0;
#X connect 47 0 40 1;
#X connect 48 0 43 1;
#X connect 49 0 46 0;
