#N canvas 111 140 1268 647 10;
#N canvas 118 168 1236 652 sampler 0;
#X obj 104 105 cnv 15 300 400 empty empty JUNGLIST_MASSIVE!!! 75 12
0 14 -4034 -66577 0;
#X obj 115 138 cnv 15 280 360 empty empty empty 20 12 0 14 -66577 -66577
0;
#X obj 154 330 cnv 15 200 140 empty empty empty 20 14 0 14 -2883 -66577
0;
#X obj 154 243 cnv 15 200 70 empty empty empty 20 12 0 14 -204786 -66577
0;
#X obj 154 164 cnv 15 200 70 empty empty empty 20 12 0 14 -4032 -66577
0;
#X obj 162 177 bng 45 250 50 0 empty empty LOADFILE 55 22 0 25 -262144
-1 -1;
#X obj -959 -56 openpanel;
#X obj -959 -14 soundfiler;
#N canvas 0 22 450 278 (subpatch) 0;
#X array randm_samplr 62287 float 2;
#X coords 0 1 62287 -1 200 140 1;
#X restore 154 330 graph;
#X obj -959 17 / 16;
#N canvas 62 401 1094 445 get_array_labels 0;
#X obj 784 85 inlet;
#X obj 151 340 outlet;
#X obj 118 195 f;
#X obj 70 195 f;
#X obj 94 195 * 1;
#X obj 214 195 f;
#X obj 238 195 * 4;
#X obj 166 195 f;
#X obj 310 195 f;
#X obj 262 195 f;
#X obj 406 195 f;
#X obj 358 195 f;
#X obj 142 195 * 2;
#X obj 190 195 * 3;
#X obj 286 195 * 5;
#X obj 334 195 * 6;
#X obj 382 195 * 7;
#X obj 430 195 * 8;
#X obj 502 195 f;
#X obj 454 195 f;
#X obj 608 195 f;
#X obj 556 195 f;
#X obj 715 195 f;
#X obj 661 195 f;
#X obj 769 195 f;
#X obj 478 195 * 9;
#X obj 526 195 * 10;
#X obj 580 195 * 11;
#X obj 632 195 * 12;
#X obj 685 195 * 13;
#X obj 739 195 * 14;
#X obj 793 195 * 15;
#X obj 481 278 pack f f f f f f f f f f f f f f f f;
#X obj 826 195 f;
#X obj 850 195 * 16;
#X connect 0 0 3 0;
#X connect 0 0 2 0;
#X connect 0 0 7 0;
#X connect 0 0 5 0;
#X connect 0 0 9 0;
#X connect 0 0 8 0;
#X connect 0 0 11 0;
#X connect 0 0 10 0;
#X connect 0 0 19 0;
#X connect 0 0 18 0;
#X connect 0 0 21 0;
#X connect 0 0 20 0;
#X connect 0 0 23 0;
#X connect 0 0 22 0;
#X connect 0 0 24 0;
#X connect 0 0 33 0;
#X connect 2 0 12 0;
#X connect 3 0 4 0;
#X connect 4 0 32 0;
#X connect 5 0 6 0;
#X connect 6 0 32 3;
#X connect 7 0 13 0;
#X connect 8 0 15 0;
#X connect 9 0 14 0;
#X connect 10 0 17 0;
#X connect 11 0 16 0;
#X connect 12 0 32 1;
#X connect 13 0 32 2;
#X connect 14 0 32 4;
#X connect 15 0 32 5;
#X connect 16 0 32 6;
#X connect 17 0 32 7;
#X connect 18 0 26 0;
#X connect 19 0 25 0;
#X connect 20 0 28 0;
#X connect 21 0 27 0;
#X connect 22 0 30 0;
#X connect 23 0 29 0;
#X connect 24 0 31 0;
#X connect 25 0 32 8;
#X connect 26 0 32 9;
#X connect 27 0 32 10;
#X connect 28 0 32 11;
#X connect 29 0 32 12;
#X connect 30 0 32 13;
#X connect 31 0 32 14;
#X connect 32 0 1 0;
#X connect 33 0 34 0;
#X connect 34 0 32 15;
#X restore -959 58 pd get_array_labels;
#X floatatom -959 38 5 0 0 0 - - -;
#X obj -996 -3 bng 15 250 50 0 empty empty empty 17 7 0 10 -262144
-1 -1;
#X floatatom -301 -58 5 0 0 0 - - -;
#N canvas 891 324 450 300 position 0;
#X obj 38 54 inlet;
#X obj 91 55 inlet;
#X obj 146 57 inlet;
#X obj 123 205 outlet;
#X obj 117 125 pack f f;
#X obj 76 204 outlet;
#X connect 0 0 5 0;
#X connect 1 0 4 0;
#X connect 2 0 4 1;
#X connect 4 0 3 0;
#X restore -665 431 pd position;
#X obj -665 451 line~;
#N canvas 698 328 846 497 time_positions 0;
#X obj 105 272 unpack f f f f f f f f f f f f f f f f;
#X obj -55 333 prepend set;
#X msg -54 358 3892.94;
#X obj -26 333 prepend set;
#X msg -25 358 7785.88;
#X obj 4 334 prepend set;
#X msg 5 359 11678.8;
#X obj 35 334 prepend set;
#X msg 36 359 15571.8;
#X obj 68 335 prepend set;
#X msg 69 360 19464.7;
#X obj 102 335 prepend set;
#X msg 103 360 23357.6;
#X obj 136 335 prepend set;
#X msg 137 360 27250.6;
#X obj 171 336 prepend set;
#X msg 172 361 31143.5;
#X obj 207 336 prepend set;
#X msg 208 361 35036.4;
#X obj 241 336 prepend set;
#X msg 242 361 38929.4;
#X obj 274 335 prepend set;
#X msg 274 362 42822.3;
#X obj 306 336 prepend set;
#X msg 307 361 46715.2;
#X obj 340 337 prepend set;
#X msg 341 362 50608.2;
#X obj 373 337 prepend set;
#X msg 374 362 54501.1;
#X obj 407 337 prepend set;
#X msg 408 362 58394.1;
#X obj 439 337 prepend set;
#X msg 440 362 62287;
#X msg -88 359 0;
#X obj -193 135 inlet;
#X obj -52 211 inlet;
#X obj -17 211 inlet;
#X obj 18 211 inlet;
#X obj 53 211 inlet;
#X obj 88 211 inlet;
#X obj 123 211 inlet;
#X obj 158 211 inlet;
#X obj 193 211 inlet;
#X obj 228 211 inlet;
#X obj 263 211 inlet;
#X obj 298 211 inlet;
#X obj 333 211 inlet;
#X obj 368 211 inlet;
#X obj 403 211 inlet;
#X obj 438 211 inlet;
#X obj 473 211 inlet;
#X obj 507 211 inlet;
#X obj -100 422 outlet;
#X obj -59 422 outlet;
#X obj -19 422 outlet;
#X obj 22 422 outlet;
#X obj 62 422 outlet;
#X obj 103 422 outlet;
#X obj 144 422 outlet;
#X obj 185 422 outlet;
#X obj 225 422 outlet;
#X obj 266 422 outlet;
#X obj 306 422 outlet;
#X obj 347 422 outlet;
#X obj 387 422 outlet;
#X obj 428 422 outlet;
#X obj 469 422 outlet;
#X obj 510 422 outlet;
#X obj 551 422 outlet;
#X connect 0 0 1 0;
#X connect 0 1 3 0;
#X connect 0 2 5 0;
#X connect 0 3 7 0;
#X connect 0 4 9 0;
#X connect 0 5 11 0;
#X connect 0 6 13 0;
#X connect 0 7 15 0;
#X connect 0 8 17 0;
#X connect 0 9 19 0;
#X connect 0 10 21 0;
#X connect 0 11 23 0;
#X connect 0 12 25 0;
#X connect 0 13 27 0;
#X connect 0 14 29 0;
#X connect 0 15 31 0;
#X connect 1 0 2 0;
#X connect 2 0 53 0;
#X connect 3 0 4 0;
#X connect 4 0 54 0;
#X connect 5 0 6 0;
#X connect 6 0 55 0;
#X connect 7 0 8 0;
#X connect 8 0 56 0;
#X connect 9 0 10 0;
#X connect 10 0 57 0;
#X connect 11 0 12 0;
#X connect 12 0 58 0;
#X connect 13 0 14 0;
#X connect 14 0 59 0;
#X connect 15 0 16 0;
#X connect 16 0 60 0;
#X connect 17 0 18 0;
#X connect 18 0 61 0;
#X connect 19 0 20 0;
#X connect 20 0 62 0;
#X connect 21 0 22 0;
#X connect 22 0 63 0;
#X connect 23 0 24 0;
#X connect 24 0 64 0;
#X connect 25 0 26 0;
#X connect 26 0 65 0;
#X connect 27 0 28 0;
#X connect 28 0 66 0;
#X connect 29 0 30 0;
#X connect 30 0 67 0;
#X connect 31 0 32 0;
#X connect 32 0 68 0;
#X connect 33 0 52 0;
#X connect 34 0 0 0;
#X connect 35 0 33 0;
#X connect 36 0 2 0;
#X connect 37 0 4 0;
#X connect 38 0 6 0;
#X connect 39 0 8 0;
#X connect 40 0 10 0;
#X connect 41 0 12 0;
#X connect 42 0 14 0;
#X connect 43 0 16 0;
#X connect 44 0 18 0;
#X connect 45 0 20 0;
#X connect 46 0 22 0;
#X connect 47 0 24 0;
#X connect 48 0 26 0;
#X connect 49 0 28 0;
#X connect 50 0 30 0;
#X connect 51 0 32 0;
#X coords 0 -1 1 1 400 30 2 100 100;
#X restore -1021 370 pd time_positions;
#N canvas 295 282 1094 445 get_array_labels 0;
#X obj 784 85 inlet;
#X obj 151 340 outlet;
#X obj 118 195 f;
#X obj 70 195 f;
#X obj 94 195 * 1;
#X obj 214 195 f;
#X obj 238 195 * 4;
#X obj 166 195 f;
#X obj 310 195 f;
#X obj 262 195 f;
#X obj 406 195 f;
#X obj 358 195 f;
#X obj 142 195 * 2;
#X obj 190 195 * 3;
#X obj 286 195 * 5;
#X obj 334 195 * 6;
#X obj 382 195 * 7;
#X obj 430 195 * 8;
#X obj 502 195 f;
#X obj 454 195 f;
#X obj 608 195 f;
#X obj 556 195 f;
#X obj 715 195 f;
#X obj 661 195 f;
#X obj 769 195 f;
#X obj 478 195 * 9;
#X obj 526 195 * 10;
#X obj 580 195 * 11;
#X obj 632 195 * 12;
#X obj 685 195 * 13;
#X obj 739 195 * 14;
#X obj 793 195 * 15;
#X obj 481 278 pack f f f f f f f f f f f f f f f f;
#X obj 826 195 f;
#X obj 850 195 * 16;
#X connect 0 0 3 0;
#X connect 0 0 2 0;
#X connect 0 0 7 0;
#X connect 0 0 5 0;
#X connect 0 0 9 0;
#X connect 0 0 8 0;
#X connect 0 0 11 0;
#X connect 0 0 10 0;
#X connect 0 0 19 0;
#X connect 0 0 18 0;
#X connect 0 0 21 0;
#X connect 0 0 20 0;
#X connect 0 0 23 0;
#X connect 0 0 22 0;
#X connect 0 0 24 0;
#X connect 0 0 33 0;
#X connect 2 0 12 0;
#X connect 3 0 4 0;
#X connect 4 0 32 0;
#X connect 5 0 6 0;
#X connect 6 0 32 3;
#X connect 7 0 13 0;
#X connect 8 0 15 0;
#X connect 9 0 14 0;
#X connect 10 0 17 0;
#X connect 11 0 16 0;
#X connect 12 0 32 1;
#X connect 13 0 32 2;
#X connect 14 0 32 4;
#X connect 15 0 32 5;
#X connect 16 0 32 6;
#X connect 17 0 32 7;
#X connect 18 0 26 0;
#X connect 19 0 25 0;
#X connect 20 0 28 0;
#X connect 21 0 27 0;
#X connect 22 0 30 0;
#X connect 23 0 29 0;
#X connect 24 0 31 0;
#X connect 25 0 32 8;
#X connect 26 0 32 9;
#X connect 27 0 32 10;
#X connect 28 0 32 11;
#X connect 29 0 32 12;
#X connect 30 0 32 13;
#X connect 31 0 32 14;
#X connect 32 0 1 0;
#X connect 33 0 34 0;
#X connect 34 0 32 15;
#X restore -301 -15 pd get_array_labels;
#N canvas 30 327 1182 478 time_positions 0;
#X obj 76 305 unpack f f f f f f f f f f f f f f f f;
#X obj -55 333 prepend set;
#X msg -54 358 102.74;
#X obj -26 333 prepend set;
#X msg -25 358 206.897;
#X obj 4 334 prepend set;
#X msg 5 359 310.345;
#X obj 35 334 prepend set;
#X msg 36 359 413.793;
#X obj 68 335 prepend set;
#X msg 69 360 517.241;
#X obj 102 335 prepend set;
#X msg 103 360 620.69;
#X obj 136 335 prepend set;
#X msg 137 360 724.138;
#X obj 171 336 prepend set;
#X msg 172 361 827.586;
#X obj 207 336 prepend set;
#X msg 208 361 931.034;
#X obj 241 336 prepend set;
#X msg 242 361 1034.48;
#X obj 274 335 prepend set;
#X msg 274 362 1137.93;
#X obj 306 336 prepend set;
#X msg 307 361 1241.38;
#X obj 340 337 prepend set;
#X msg 341 362 1344.83;
#X obj 373 337 prepend set;
#X msg 374 362 1448.28;
#X obj 407 337 prepend set;
#X msg 408 362 1551.72;
#X obj 439 337 prepend set;
#X msg 440 362 1655.17;
#X obj -193 135 inlet;
#X obj 924 305 inlet;
#X obj 889 305 inlet;
#X obj 854 305 inlet;
#X obj 819 305 inlet;
#X obj 784 305 inlet;
#X obj 750 304 inlet;
#X obj 715 304 inlet;
#X obj 680 304 inlet;
#X obj 645 304 inlet;
#X obj 610 304 inlet;
#X obj 575 304 inlet;
#X obj 541 304 inlet;
#X obj 506 304 inlet;
#X obj 472 304 inlet;
#X obj 438 304 inlet;
#X obj 403 304 inlet;
#X obj 185 426 outlet;
#X obj 225 426 outlet;
#X obj 266 426 outlet;
#X obj 306 426 outlet;
#X obj 346 426 outlet;
#X obj 386 426 outlet;
#X obj 427 426 outlet;
#X obj 467 426 outlet;
#X obj 508 426 outlet;
#X obj 548 426 outlet;
#X obj 589 426 outlet;
#X obj 629 426 outlet;
#X obj 669 426 outlet;
#X obj 709 426 outlet;
#X obj 750 426 outlet;
#X obj 790 426 outlet;
#X connect 0 0 1 0;
#X connect 0 1 3 0;
#X connect 0 2 5 0;
#X connect 0 3 7 0;
#X connect 0 4 9 0;
#X connect 0 5 11 0;
#X connect 0 6 13 0;
#X connect 0 7 15 0;
#X connect 0 8 17 0;
#X connect 0 9 19 0;
#X connect 0 10 21 0;
#X connect 0 11 23 0;
#X connect 0 12 25 0;
#X connect 0 13 27 0;
#X connect 0 14 29 0;
#X connect 0 15 31 0;
#X connect 1 0 2 0;
#X connect 2 0 65 0;
#X connect 3 0 4 0;
#X connect 4 0 64 0;
#X connect 5 0 6 0;
#X connect 6 0 63 0;
#X connect 7 0 8 0;
#X connect 8 0 62 0;
#X connect 9 0 10 0;
#X connect 10 0 61 0;
#X connect 11 0 12 0;
#X connect 12 0 60 0;
#X connect 13 0 14 0;
#X connect 14 0 59 0;
#X connect 15 0 16 0;
#X connect 16 0 58 0;
#X connect 17 0 18 0;
#X connect 18 0 57 0;
#X connect 19 0 20 0;
#X connect 20 0 56 0;
#X connect 21 0 22 0;
#X connect 22 0 55 0;
#X connect 23 0 24 0;
#X connect 24 0 54 0;
#X connect 25 0 26 0;
#X connect 26 0 53 0;
#X connect 27 0 28 0;
#X connect 28 0 52 0;
#X connect 29 0 30 0;
#X connect 30 0 51 0;
#X connect 31 0 32 0;
#X connect 32 0 50 0;
#X connect 33 0 0 0;
#X connect 34 0 2 0;
#X connect 35 0 4 0;
#X connect 36 0 6 0;
#X connect 37 0 8 0;
#X connect 38 0 10 0;
#X connect 39 0 12 0;
#X connect 40 0 14 0;
#X connect 41 0 16 0;
#X connect 42 0 18 0;
#X connect 43 0 20 0;
#X connect 44 0 22 0;
#X connect 45 0 24 0;
#X connect 46 0 26 0;
#X connect 47 0 28 0;
#X connect 48 0 30 0;
#X connect 49 0 32 0;
#X coords 0 -1 1 1 400 30 2 100 100;
#X restore -618 371 pd time_positions;
#X obj -301 -40 / 16;
#X obj 119 481 bng 15 250 50 0 empty empty empty 17 7 0 10 -159808
-258113 -1;
#X obj 187 481 bng 15 250 50 0 empty empty empty 17 7 0 10 -159808
-258113 -1;
#X obj 255 481 bng 15 250 50 0 empty empty empty 17 7 0 10 -159808
-258113 -1;
#X obj 323 481 bng 15 250 50 0 empty empty empty 17 7 0 10 -159808
-258113 -1;
#X msg -959 -35 read -resize \$1 randm_samplr;
#X obj -665 472 tabread~ randm_samplr;
#X obj 153 481 bng 15 250 50 0 empty empty empty 17 7 0 10 -203904
-258113 -1;
#X obj 221 481 bng 15 250 50 0 empty empty empty 17 7 0 10 -203904
-258113 -1;
#X obj 289 481 bng 15 250 50 0 empty empty empty 17 7 0 10 -203904
-258113 -1;
#X obj 357 481 bng 15 250 50 0 empty empty empty 17 7 0 10 -203904
-258113 -1;
#X obj -792 83 select 0 1 2 3 4 5 6 7;
#N canvas 163 254 697 522 metronome 0;
#X obj -77 249 metro;
#X obj -77 270 f;
#X obj -50 271 + 1;
#X obj 111 119 bng 45 250 50 0 empty empty > 10 16 0 50 -262144 -1
-1;
#X msg 181 245 14;
#X obj 182 119 bng 45 250 50 0 empty empty [] 5 20 0 30 -262144 -1
-1;
#X msg -76 221 0;
#X obj -46 388 outlet;
#X text 117 101 START;
#X text 189 101 STOP;
#X msg -44 175 60000;
#X floatatom 248 132 5 0 0 0 - - -;
#X obj -4 176 *;
#X obj -31 196 /;
#X floatatom -33 221 5 0 0 0 - - -;
#X text 250 115 BPM;
#X msg 41 188 2;
#X obj 11 388 outlet;
#X obj 8 57 inlet;
#X obj 48 132 bng 15 250 50 0 empty empty empty 17 7 0 10 -262144 -1
-1;
#X text 216 102 /////////////;
#X text 149 101 //////;
#X text 102 102 //;
#X text 230 150 ///////////;
#X connect 0 0 1 0;
#X connect 1 0 2 0;
#X connect 2 0 1 1;
#X connect 2 0 7 0;
#X connect 3 0 4 0;
#X connect 3 0 0 0;
#X connect 4 0 1 0;
#X connect 5 0 6 0;
#X connect 6 0 0 0;
#X connect 10 0 13 0;
#X connect 11 0 12 0;
#X connect 11 0 16 0;
#X connect 11 0 10 0;
#X connect 12 0 13 1;
#X connect 13 0 14 0;
#X connect 14 0 0 1;
#X connect 14 0 17 0;
#X connect 16 0 12 1;
#X connect 18 0 19 0;
#X connect 18 0 11 0;
#X connect 19 0 11 0;
#X coords 0 -1 1 1 200 70 2 100 100;
#X restore 154 243 pd metronome;
#X msg -585 -135 187;
#X obj -888 -13 / 44100;
#X floatatom -888 12 5 0 0 0 - - -;
#X obj -836 -13 expr if ($f1 > 1 && $f1 < 2 \, 8 \, 16);
#X floatatom -835 6 5 0 0 0 - - -;
#X obj -302 -79 *;
#X obj -472 -141 bng 15 250 50 0 empty empty empty 17 7 0 10 -262144
-1 -1;
#X obj -664 29 == 8;
#X obj -697 63 spigot;
#X obj -818 64 hradio 15 1 0 8 empty empty empty 0 -8 0 10 -262144
-1 -1 0;
#X obj -576 30 == 16;
#X obj -609 65 spigot;
#X obj -609 83 select 0 1 2 3 4 5 6 7 8 9 10 11 12 13 14 15;
#X obj -568 67 hradio 15 1 0 16 empty empty empty 0 -8 0 10 -262144
-1 -1 0;
#X floatatom -587 13 5 0 0 0 - - -;
#X floatatom -664 46 5 0 0 0 - - -;
#X floatatom -576 48 5 0 0 0 - - -;
#X obj -587 -10 mod \$1;
#N canvas 121 334 1287 459 ranom1 0;
#X obj -9 50 inlet;
#X obj 190 46 inlet;
#X obj 310 48 inlet;
#X obj 510 49 inlet;
#X obj 629 50 inlet;
#X obj 747 52 inlet;
#X obj 865 51 inlet;
#X obj 1064 51 inlet;
#X obj 24 279 outlet;
#X obj 231 273 outlet;
#X obj 356 279 outlet;
#X obj 555 282 outlet;
#X obj 676 282 outlet;
#X obj 798 284 outlet;
#X obj 912 281 outlet;
#X obj 1109 279 outlet;
#X obj -1 144 random 6;
#X obj 188 141 random 6;
#X obj 188 159 select 0 1 2 3 4 5;
#X obj 305 142 random 6;
#X obj 510 145 random 6;
#X obj 510 163 select 0 1 2 3 4 5;
#X obj 629 146 random 6;
#X obj 629 164 select 0 1 2 3 4 5;
#X obj 748 147 random 6;
#X obj 748 165 select 0 1 2 3 4 5;
#X obj 1064 145 random 6;
#X obj 1064 163 select 0 1 2 3 4 5;
#X text 78 144 1;
#X text 274 139 2;
#X text 389 141 3;
#X text 590 145 4;
#X text 708 147 5;
#X text 828 148 6;
#X text 938 143 7;
#X text 1141 143 8;
#X text 34 300 bd;
#X text 244 293 hh;
#X text 369 301 sd;
#X text 567 300 hh;
#X text 692 303 hh;
#X text 811 304 bd;
#X text 925 302 sd;
#X text 1123 300 hh;
#X text 556 328 The Most Typical Pattern;
#X obj 865 164 select 0 1 2 3 4 5 6 7 8 9 10;
#X obj 865 146 random 10;
#X obj 305 160 select 0 1 2 3 4 5 6 7 8 9 10;
#X obj -1 162 select 0 1 2 3 4 5 6 7 8 9 10;
#X connect 0 0 16 0;
#X connect 1 0 17 0;
#X connect 2 0 19 0;
#X connect 3 0 20 0;
#X connect 4 0 22 0;
#X connect 5 0 24 0;
#X connect 6 0 46 0;
#X connect 7 0 26 0;
#X connect 16 0 48 0;
#X connect 17 0 18 0;
#X connect 18 0 9 0;
#X connect 18 1 11 0;
#X connect 18 2 9 0;
#X connect 18 3 11 0;
#X connect 18 4 11 0;
#X connect 18 5 8 0;
#X connect 19 0 47 0;
#X connect 20 0 21 0;
#X connect 21 0 11 0;
#X connect 21 1 12 0;
#X connect 21 2 11 0;
#X connect 21 3 12 0;
#X connect 21 4 15 0;
#X connect 21 5 10 0;
#X connect 22 0 23 0;
#X connect 23 0 12 0;
#X connect 23 1 12 0;
#X connect 23 2 12 0;
#X connect 23 3 11 0;
#X connect 23 4 12 0;
#X connect 23 5 13 0;
#X connect 24 0 25 0;
#X connect 25 0 13 0;
#X connect 25 1 13 0;
#X connect 25 2 13 0;
#X connect 25 4 13 0;
#X connect 25 5 12 0;
#X connect 26 0 27 0;
#X connect 27 0 15 0;
#X connect 27 1 15 0;
#X connect 27 2 15 0;
#X connect 27 3 15 0;
#X connect 27 4 12 0;
#X connect 27 5 10 0;
#X connect 45 0 14 0;
#X connect 45 1 14 0;
#X connect 45 2 14 0;
#X connect 45 3 10 0;
#X connect 45 4 10 0;
#X connect 45 5 12 0;
#X connect 45 6 14 0;
#X connect 45 7 14 0;
#X connect 45 8 14 0;
#X connect 45 9 10 0;
#X connect 45 10 14 0;
#X connect 46 0 45 0;
#X connect 47 0 10 0;
#X connect 47 1 10 0;
#X connect 47 2 14 0;
#X connect 47 3 14 0;
#X connect 47 4 10 0;
#X connect 47 5 11 0;
#X connect 47 6 10 0;
#X connect 47 7 10 0;
#X connect 47 8 14 0;
#X connect 47 9 14 0;
#X connect 47 10 10 0;
#X connect 48 0 8 0;
#X connect 48 1 8 0;
#X connect 48 2 8 0;
#X connect 48 3 8 0;
#X connect 48 4 10 0;
#X connect 48 5 11 0;
#X connect 48 6 8 0;
#X connect 48 7 8 0;
#X connect 48 8 8 0;
#X connect 48 9 8 0;
#X connect 48 10 8 0;
#X coords 0 -1 1 1 160 30 1 100 100;
#X restore -806 120 pd ranom1;
#N canvas 203 375 1138 434 random2 0;
#X obj 71 56 inlet;
#X obj 114 75 inlet;
#X obj 194 61 inlet;
#X obj 249 85 inlet;
#X obj 311 62 inlet;
#X obj 366 82 inlet;
#X obj 426 61 inlet;
#X obj 498 82 inlet;
#X obj 98 213 outlet;
#X obj 158 320 outlet;
#X obj 229 215 outlet;
#X obj 278 325 outlet;
#X obj 345 218 outlet;
#X obj 390 325 outlet;
#X obj 470 217 outlet;
#X obj 513 327 outlet;
#X obj 550 66 inlet;
#X obj 588 92 inlet;
#X obj 658 56 inlet;
#X obj 707 82 inlet;
#X obj 776 49 inlet;
#X obj 818 75 inlet;
#X obj 896 69 inlet;
#X obj 973 69 inlet;
#X obj 593 221 outlet;
#X obj 629 329 outlet;
#X obj 713 222 outlet;
#X obj 744 329 outlet;
#X obj 831 220 outlet;
#X obj 872 330 outlet;
#X obj 942 224 outlet;
#X obj 989 332 outlet;
#X obj 79 150 random 6;
#X obj 79 168 select 0 1 2 3 4 5;
#X obj 198 151 random 6;
#X obj 198 169 select 0 1 2 3 4 5;
#X obj 315 152 random 6;
#X obj 315 170 select 0 1 2 3 4 5;
#X obj 434 153 random 6;
#X obj 434 171 select 0 1 2 3 4 5;
#X obj 553 154 random 6;
#X obj 553 172 select 0 1 2 3 4 5;
#X obj 672 155 random 6;
#X obj 672 173 select 0 1 2 3 4 5;
#X obj 789 156 random 6;
#X obj 789 174 select 0 1 2 3 4 5;
#X obj 908 157 random 6;
#X obj 908 175 select 0 1 2 3 4 5;
#X obj 114 261 random 6;
#X obj 114 279 select 0 1 2 3 4 5;
#X obj 233 262 random 6;
#X obj 233 280 select 0 1 2 3 4 5;
#X obj 350 263 random 6;
#X obj 350 281 select 0 1 2 3 4 5;
#X obj 469 264 random 6;
#X obj 469 282 select 0 1 2 3 4 5;
#X obj 588 265 random 6;
#X obj 588 283 select 0 1 2 3 4 5;
#X obj 707 266 random 6;
#X obj 707 284 select 0 1 2 3 4 5;
#X obj 824 267 random 6;
#X obj 824 285 select 0 1 2 3 4 5;
#X obj 943 268 random 6;
#X obj 943 286 select 0 1 2 3 4 5;
#X text 153 144 1;
#X text 178 257 2;
#X text 269 150 3;
#X text 308 260 4;
#X text 392 149 5;
#X text 428 262 6;
#X text 513 151 7;
#X text 545 261 8;
#X text 633 153 9;
#X text 669 266 10;
#X text 753 155 11;
#X text 778 260 12;
#X text 866 152 13;
#X text 899 267 14;
#X text 983 154 15;
#X text 1023 265 16;
#X connect 0 0 32 0;
#X connect 1 0 48 0;
#X connect 2 0 34 0;
#X connect 3 0 50 0;
#X connect 4 0 36 0;
#X connect 5 0 52 0;
#X connect 6 0 38 0;
#X connect 7 0 54 0;
#X connect 16 0 40 0;
#X connect 17 0 56 0;
#X connect 18 0 42 0;
#X connect 19 0 58 0;
#X connect 20 0 44 0;
#X connect 21 0 60 0;
#X connect 22 0 46 0;
#X connect 23 0 62 0;
#X connect 32 0 33 0;
#X connect 34 0 35 0;
#X connect 36 0 37 0;
#X connect 38 0 39 0;
#X connect 40 0 41 0;
#X connect 42 0 43 0;
#X connect 44 0 45 0;
#X connect 46 0 47 0;
#X connect 48 0 49 0;
#X connect 50 0 51 0;
#X connect 52 0 53 0;
#X connect 54 0 55 0;
#X connect 56 0 57 0;
#X connect 58 0 59 0;
#X connect 60 0 61 0;
#X connect 62 0 63 0;
#X coords 0 -1 1 1 300 30 1 100 100;
#X restore -610 119 pd random2;
#X obj 136 481 bng 15 250 50 0 empty empty empty 17 7 0 10 -232576
-258113 -1;
#X obj 170 481 bng 15 250 50 0 empty empty empty 17 7 0 10 -204800
-258113 -1;
#X obj 204 481 bng 15 250 50 0 empty empty empty 17 7 0 10 -232576
-258113 -1;
#X obj 238 481 bng 15 250 50 0 empty empty empty 17 7 0 10 -204800
-258113 -1;
#X obj 272 481 bng 15 250 50 0 empty empty empty 17 7 0 10 -232576
-258113 -1;
#X obj 306 481 bng 15 250 50 0 empty empty empty 17 7 0 10 -204800
-258113 -1;
#X obj 340 481 bng 15 250 50 0 empty empty empty 17 7 0 10 -232576
-258113 -1;
#X obj 374 481 bng 15 250 50 0 empty empty empty 17 7 0 10 -204800
-258113 -1;
#X obj -1027 16 delay 100;
#X obj -347 493 outlet~;
#X connect 5 0 6 0;
#X connect 6 0 24 0;
#X connect 7 0 9 0;
#X connect 7 0 33 0;
#X connect 9 0 11 0;
#X connect 9 0 12 0;
#X connect 10 0 16 0;
#X connect 11 0 10 0;
#X connect 12 0 60 0;
#X connect 13 0 19 0;
#X connect 14 0 15 0;
#X connect 14 1 15 0;
#X connect 15 0 25 0;
#X connect 16 0 14 0;
#X connect 16 1 14 0;
#X connect 16 2 14 0;
#X connect 16 3 14 0;
#X connect 16 4 14 0;
#X connect 16 5 14 0;
#X connect 16 6 14 0;
#X connect 16 7 14 0;
#X connect 16 8 14 0;
#X connect 16 9 14 0;
#X connect 16 10 14 0;
#X connect 16 11 14 0;
#X connect 16 12 14 0;
#X connect 16 13 14 0;
#X connect 16 14 14 0;
#X connect 16 15 14 0;
#X connect 16 16 14 1;
#X connect 17 0 18 0;
#X connect 18 0 14 2;
#X connect 18 1 14 2;
#X connect 18 2 14 2;
#X connect 18 3 14 2;
#X connect 18 4 14 2;
#X connect 18 5 14 2;
#X connect 18 6 14 2;
#X connect 18 7 14 2;
#X connect 18 8 14 2;
#X connect 18 9 14 2;
#X connect 18 10 14 2;
#X connect 18 11 14 2;
#X connect 18 12 14 2;
#X connect 18 13 14 2;
#X connect 18 14 14 2;
#X connect 18 15 14 2;
#X connect 19 0 17 0;
#X connect 20 0 16 1;
#X connect 20 0 18 1;
#X connect 20 0 16 17;
#X connect 21 0 16 5;
#X connect 21 0 18 5;
#X connect 21 0 16 17;
#X connect 22 0 16 9;
#X connect 22 0 18 9;
#X connect 22 0 16 17;
#X connect 23 0 16 13;
#X connect 23 0 18 13;
#X connect 23 0 16 17;
#X connect 24 0 7 0;
#X connect 25 0 61 0;
#X connect 26 0 16 3;
#X connect 26 0 18 3;
#X connect 26 0 16 17;
#X connect 27 0 16 7;
#X connect 27 0 18 7;
#X connect 27 0 16 17;
#X connect 28 0 16 11;
#X connect 28 0 18 11;
#X connect 28 0 16 17;
#X connect 29 0 16 15;
#X connect 29 0 18 15;
#X connect 29 0 16 17;
#X connect 30 0 50 0;
#X connect 30 1 50 1;
#X connect 30 2 50 2;
#X connect 30 3 50 3;
#X connect 30 4 50 4;
#X connect 30 5 50 5;
#X connect 30 6 50 6;
#X connect 30 7 50 7;
#X connect 31 0 49 0;
#X connect 31 1 37 0;
#X connect 32 0 31 0;
#X connect 33 0 34 0;
#X connect 34 0 35 0;
#X connect 35 0 36 0;
#X connect 36 0 37 1;
#X connect 36 0 39 0;
#X connect 36 0 42 0;
#X connect 36 0 49 1;
#X connect 37 0 13 0;
#X connect 38 0 32 0;
#X connect 38 0 13 0;
#X connect 39 0 47 0;
#X connect 40 0 30 0;
#X connect 40 0 41 0;
#X connect 42 0 48 0;
#X connect 43 0 44 0;
#X connect 43 0 45 0;
#X connect 44 0 51 0;
#X connect 44 1 51 1;
#X connect 44 2 51 2;
#X connect 44 3 51 3;
#X connect 44 4 51 4;
#X connect 44 5 51 5;
#X connect 44 6 51 6;
#X connect 44 7 51 7;
#X connect 44 8 51 8;
#X connect 44 9 51 9;
#X connect 44 10 51 10;
#X connect 44 11 51 11;
#X connect 44 12 51 12;
#X connect 44 13 51 13;
#X connect 44 14 51 14;
#X connect 44 15 51 15;
#X connect 46 0 40 0;
#X connect 46 0 43 0;
#X connect 47 0 40 1;
#X connect 48 0 43 1;
#X connect 49 0 46 0;
#X connect 50 0 20 0;
#X connect 50 1 26 0;
#X connect 50 2 21 0;
#X connect 50 3 27 0;
#X connect 50 4 22 0;
#X connect 50 5 28 0;
#X connect 50 6 23 0;
#X connect 50 7 29 0;
#X connect 51 0 20 0;
#X connect 51 1 52 0;
#X connect 51 2 26 0;
#X connect 51 3 53 0;
#X connect 51 4 21 0;
#X connect 51 5 54 0;
#X connect 51 6 27 0;
#X connect 51 7 55 0;
#X connect 51 8 22 0;
#X connect 51 9 56 0;
#X connect 51 10 28 0;
#X connect 51 11 57 0;
#X connect 51 12 23 0;
#X connect 51 13 58 0;
#X connect 51 14 29 0;
#X connect 51 15 59 0;
#X connect 52 0 16 2;
#X connect 52 0 18 2;
#X connect 52 0 16 17;
#X connect 53 0 16 4;
#X connect 53 0 18 4;
#X connect 53 0 16 17;
#X connect 54 0 16 6;
#X connect 54 0 18 6;
#X connect 54 0 16 17;
#X connect 55 0 16 8;
#X connect 55 0 18 8;
#X connect 55 0 16 17;
#X connect 56 0 16 10;
#X connect 56 0 18 10;
#X connect 56 0 16 17;
#X connect 57 0 16 12;
#X connect 57 0 18 12;
#X connect 57 0 16 17;
#X connect 58 0 16 14;
#X connect 58 0 18 14;
#X connect 58 0 16 17;
#X connect 59 0 16 16;
#X connect 59 0 18 16;
#X connect 59 0 16 17;
#X connect 60 0 10 0;
#X connect 60 0 38 0;
#X coords 0 -1 1 1 310 410 2 100 100;
#X restore -522 55 pd sampler;
#X obj -471 512 dac~;
#X connect 0 0 1 0;
#X connect 0 0 1 1;
